<svg viewBox="0 0 330 200" xmlns="http://www.w3.org/2000/svg"><g><g><g><g><g><line x1="30.78125" y1="177" x2="25.78125" y2="177" style="visibility: inherit;" fill="rgb(0, 0, 0)" stroke="rgb(204, 204, 204)" stroke-width="1px"></line><line x1="30.78125" y1="160.9090909090909" x2="25.78125" y2="160.9090909090909" style="visibility: inherit;" fill="rgb(0, 0, 0)" stroke="rgb(204, 204, 204)" stroke-width="1px"></line><line x1="30.78125" y1="144.8181818181818" x2="25.78125" y2="144.8181818181818" style="visibility: inherit;" fill="rgb(0, 0, 0)" stroke="rgb(204, 204, 204)" stroke-width="1px"></line><line x1="30.78125" y1="128.72727272727272" x2="25.78125" y2="128.72727272727272" style="visibility: inherit;" fill="rgb(0, 0, 0)" stroke="rgb(204, 204, 204)" stroke-width="1px"></line><line x1="30.78125" y1="112.63636363636364" x2="25.78125" y2="112.63636363636364" style="visibility: inherit;" fill="rgb(0, 0, 0)" stroke="rgb(204, 204, 204)" stroke-width="1px"></line><line x1="30.78125" y1="96.54545454545453" x2="25.78125" y2="96.54545454545453" style="visibility: inherit;" fill="rgb(0, 0, 0)" stroke="rgb(204, 204, 204)" stroke-width="1px"></line><line x1="30.78125" y1="80.45454545454547" x2="25.78125" y2="80.45454545454547" style="visibility: inherit;" fill="rgb(0, 0, 0)" stroke="rgb(204, 204, 204)" stroke-width="1px"></line><line x1="30.78125" y1="64.36363636363636" x2="25.78125" y2="64.36363636363636" style="visibility: inherit;" fill="rgb(0, 0, 0)" stroke="rgb(204, 204, 204)" stroke-width="1px"></line><line x1="30.78125" y1="48.272727272727266" x2="25.78125" y2="48.272727272727266" style="visibility: inherit;" fill="rgb(0, 0, 0)" stroke="rgb(204, 204, 204)" stroke-width="1px"></line><line x1="30.78125" y1="32.18181818181817" x2="25.78125" y2="32.18181818181817" style="visibility: inherit;" fill="rgb(0, 0, 0)" stroke="rgb(204, 204, 204)" stroke-width="1px"></line><line x1="30.78125" y1="16.090909090909097" x2="25.78125" y2="16.090909090909097" style="visibility: inherit;" fill="rgb(0, 0, 0)" stroke="rgb(204, 204, 204)" stroke-width="1px"></line><line x1="30.78125" y1="0" x2="25.78125" y2="0" style="visibility: inherit;" fill="rgb(0, 0, 0)" stroke="rgb(204, 204, 204)" stroke-width="1px"></line></g><g transform="translate(20.78125, 0)"><text x="0" y="177" dx="0em" dy="0.3em" style="text-anchor: end; visibility: hidden; font-family: Roboto, sans-serif; font-size: 12px; font-weight: 200;" fill="rgb(33, 33, 33)" stroke="none" stroke-width="1px">-2</text><text x="0" y="160.9090909090909" dx="0em" dy="0.3em" style="text-anchor: end; visibility: inherit; font-family: Roboto, sans-serif; font-size: 12px; font-weight: 200;" fill="rgb(33, 33, 33)" stroke="none" stroke-width="1px">0</text><text x="0" y="144.8181818181818" dx="0em" dy="0.3em" style="text-anchor: end; visibility: hidden; font-family: Roboto, sans-serif; font-size: 12px; font-weight: 200;" fill="rgb(33, 33, 33)" stroke="none" stroke-width="1px">2</text><text x="0" y="128.72727272727272" dx="0em" dy="0.3em" style="text-anchor: end; visibility: inherit; font-family: Roboto, sans-serif; font-size: 12px; font-weight: 200;" fill="rgb(33, 33, 33)" stroke="none" stroke-width="1px">4</text><text x="0" y="112.63636363636364" dx="0em" dy="0.3em" style="text-anchor: end; visibility: hidden; font-family: Roboto, sans-serif; font-size: 12px; font-weight: 200;" fill="rgb(33, 33, 33)" stroke="none" stroke-width="1px">6</text><text x="0" y="96.54545454545453" dx="0em" dy="0.3em" style="text-anchor: end; visibility: inherit; font-family: Roboto, sans-serif; font-size: 12px; font-weight: 200;" fill="rgb(33, 33, 33)" stroke="none" stroke-width="1px">8</text><text x="0" y="80.45454545454547" dx="0em" dy="0.3em" style="text-anchor: end; visibility: hidden; font-family: Roboto, sans-serif; font-size: 12px; font-weight: 200;" fill="rgb(33, 33, 33)" stroke="none" stroke-width="1px">10</text><text x="0" y="64.36363636363636" dx="0em" dy="0.3em" style="text-anchor: end; visibility: inherit; font-family: Roboto, sans-serif; font-size: 12px; font-weight: 200;" fill="rgb(33, 33, 33)" stroke="none" stroke-width="1px">12</text><text x="0" y="48.272727272727266" dx="0em" dy="0.3em" style="text-anchor: end; visibility: hidden; font-family: Roboto, sans-serif; font-size: 12px; font-weight: 200;" fill="rgb(33, 33, 33)" stroke="none" stroke-width="1px">14</text><text x="0" y="32.18181818181817" dx="0em" dy="0.3em" style="text-anchor: end; visibility: inherit; font-family: Roboto, sans-serif; font-size: 12px; font-weight: 200;" fill="rgb(33, 33, 33)" stroke="none" stroke-width="1px">16</text><text x="0" y="16.090909090909097" dx="0em" dy="0.3em" style="text-anchor: end; visibility: hidden; font-family: Roboto, sans-serif; font-size: 12px; font-weight: 200;" fill="rgb(33, 33, 33)" stroke="none" stroke-width="1px">18</text><text x="0" y="0" dx="0em" dy="0.3em" style="text-anchor: end; visibility: hidden; font-family: Roboto, sans-serif; font-size: 12px; font-weight: 200;" fill="rgb(33, 33, 33)" stroke="none" stroke-width="1px">20</text></g><line x1="30.78125" y1="0" x2="30.78125" y2="177" fill="rgb(0, 0, 0)" stroke="rgb(204, 204, 204)" stroke-width="1px"></line></g></g><g transform="translate(30, 0)" clip-path="url(#clip_0)"><clipPath id="clip_0"><rect width="299" height="176"></rect></clipPath><g><g><g><line x1="0" y1="0" x2="0" y2="177" fill="rgb(0, 0, 0)" stroke="rgb(66, 66, 66)" stroke-width="1px" opacity="0.25"></line><line x1="23.016826923076923" y1="0" x2="23.016826923076923" y2="177" fill="rgb(0, 0, 0)" stroke="rgb(66, 66, 66)" stroke-width="1px" opacity="0.25"></line><line x1="46.03365384615385" y1="0" x2="46.03365384615385" y2="177" fill="rgb(0, 0, 0)" stroke="rgb(66, 66, 66)" stroke-width="1px" opacity="0.25"></line><line x1="69.05048076923077" y1="0" x2="69.05048076923077" y2="177" fill="rgb(0, 0, 0)" stroke="rgb(66, 66, 66)" stroke-width="1px" opacity="0.25"></line><line x1="92.0673076923077" y1="0" x2="92.0673076923077" y2="177" fill="rgb(0, 0, 0)" stroke="rgb(66, 66, 66)" stroke-width="1px" opacity="0.25"></line><line x1="115.08413461538463" y1="0" x2="115.08413461538463" y2="177" fill="rgb(0, 0, 0)" stroke="rgb(66, 66, 66)" stroke-width="1px" opacity="0.25"></line><line x1="138.10096153846155" y1="0" x2="138.10096153846155" y2="177" fill="rgb(0, 0, 0)" stroke="rgb(66, 66, 66)" stroke-width="1px" opacity="0.25"></line><line x1="161.11778846153845" y1="0" x2="161.11778846153845" y2="177" fill="rgb(0, 0, 0)" stroke="rgb(66, 66, 66)" stroke-width="1px" opacity="0.25"></line><line x1="184.1346153846154" y1="0" x2="184.1346153846154" y2="177" fill="rgb(0, 0, 0)" stroke="rgb(66, 66, 66)" stroke-width="1px" opacity="0.25"></line><line x1="207.1514423076923" y1="0" x2="207.1514423076923" y2="177" fill="rgb(0, 0, 0)" stroke="rgb(66, 66, 66)" stroke-width="1px" opacity="0.25"></line><line x1="230.16826923076925" y1="0" x2="230.16826923076925" y2="177" fill="rgb(0, 0, 0)" stroke="rgb(66, 66, 66)" stroke-width="1px" opacity="0.25"></line><line x1="253.18509615384616" y1="0" x2="253.18509615384616" y2="177" fill="rgb(0, 0, 0)" stroke="rgb(66, 66, 66)" stroke-width="1px" opacity="0.25"></line><line x1="276.2019230769231" y1="0" x2="276.2019230769231" y2="177" fill="rgb(0, 0, 0)" stroke="rgb(66, 66, 66)" stroke-width="1px" opacity="0.25"></line><line x1="299.21875" y1="0" x2="299.21875" y2="177" fill="rgb(0, 0, 0)" stroke="rgb(66, 66, 66)" stroke-width="1px" opacity="0.25"></line></g><g><line x1="0" y1="177" x2="299.21875" y2="177" fill="rgb(0, 0, 0)" stroke="rgb(66, 66, 66)" stroke-width="1px" opacity="0.25"></line><line x1="0" y1="160.9090909090909" x2="299.21875" y2="160.9090909090909" fill="rgb(0, 0, 0)" stroke="rgb(66, 66, 66)" stroke-width="1px" opacity="0.25"></line><line x1="0" y1="144.8181818181818" x2="299.21875" y2="144.8181818181818" fill="rgb(0, 0, 0)" stroke="rgb(66, 66, 66)" stroke-width="1px" opacity="0.25"></line><line x1="0" y1="128.72727272727272" x2="299.21875" y2="128.72727272727272" fill="rgb(0, 0, 0)" stroke="rgb(66, 66, 66)" stroke-width="1px" opacity="0.25"></line><line x1="0" y1="112.63636363636364" x2="299.21875" y2="112.63636363636364" fill="rgb(0, 0, 0)" stroke="rgb(66, 66, 66)" stroke-width="1px" opacity="0.25"></line><line x1="0" y1="96.54545454545453" x2="299.21875" y2="96.54545454545453" fill="rgb(0, 0, 0)" stroke="rgb(66, 66, 66)" stroke-width="1px" opacity="0.25"></line><line x1="0" y1="80.45454545454547" x2="299.21875" y2="80.45454545454547" fill="rgb(0, 0, 0)" stroke="rgb(66, 66, 66)" stroke-width="1px" opacity="0.25"></line><line x1="0" y1="64.36363636363636" x2="299.21875" y2="64.36363636363636" fill="rgb(0, 0, 0)" stroke="rgb(66, 66, 66)" stroke-width="1px" opacity="0.25"></line><line x1="0" y1="48.272727272727266" x2="299.21875" y2="48.272727272727266" fill="rgb(0, 0, 0)" stroke="rgb(66, 66, 66)" stroke-width="1px" opacity="0.25"></line><line x1="0" y1="32.18181818181817" x2="299.21875" y2="32.18181818181817" fill="rgb(0, 0, 0)" stroke="rgb(66, 66, 66)" stroke-width="1px" opacity="0.25"></line><line x1="0" y1="16.090909090909097" x2="299.21875" y2="16.090909090909097" fill="rgb(0, 0, 0)" stroke="rgb(66, 66, 66)" stroke-width="1px" opacity="0.25"></line><line x1="0" y1="0" x2="299.21875" y2="0" fill="rgb(0, 0, 0)" stroke="rgb(66, 66, 66)" stroke-width="1px" opacity="0.25"></line></g></g></g><g><g><line x1="0" y1="160.9090909090909" x2="299.21875" y2="160.9090909090909" fill="rgb(0, 0, 0)" stroke="rgb(153, 153, 153)" stroke-width="1.5px"></line></g></g><g><g><line x1="23.016826923076923" y1="0" x2="23.016826923076923" y2="177" fill="rgb(0, 0, 0)" stroke="rgb(153, 153, 153)" stroke-width="1.5px"></line></g></g><g><g><g><g><g><path stroke="rgb(255, 112, 67)" stroke-width="2px" d="M25.27247596153846,160.9090909090909L27.574158653846155,160.9090909090909L29.875841346153848,160.9090909090909L32.17752403846154,160.9090909090909L34.479206730769235,160.9090909090909L35.99831730769231,160.9090909090909L36.78088942307692,157.59822606480407L39.082572115384615,155.67203761494295L41.38425480769231,154.53724097890046L43.685937499999994,153.86372664919497L45.98762019230769,153.46223393121062L48.28930288461538,153.22227256050786L49.02584134615384,153.07863047522687L50.590985576923075,149.77185968912374L52.89266826923077,147.789456444508L55.19435096153846,146.6006112076699L57.496033653846155,145.8875187491427L59.79771634615384,145.4597405316211L62.05336538461538,145.2031014076904L62.099399038461534,141.83082845806308L64.40108173076923,139.8075435992287L66.70276442307693,138.59360109050996L69.00444711538461,137.86524581135512L71.3061298076923,137.4282363251864L73.6078125,137.16603195874816L75.08088942307693,137.008709815977L75.9094951923077,133.69613159010336L78.21117788461538,131.70858682443136L80.51286057692309,130.51606074617388L82.81454326923077,129.80054538043163L85.11622596153848,129.37123626222262L87.41790865384615,129.11365082774233L88.10841346153846,128.95909958017435L89.71959134615385,125.64818692597034L92.02127403846154,123.66163939415932L94.32295673076922,122.4697108969288L96.62463942307693,121.75455380645869L98.92632211538461,121.32545955500919L101.13593750000001,121.06800300515918L101.22800480769232,117.69534725313257L103.5296875,115.67175380480197L105.83137019230769,114.45759773684235L108.13305288461538,113.72910409644051L110.43473557692307,113.29200791233404L112.73641826923077,113.02975020191862L114.16346153846155,112.87239557568681L115.03810096153846,109.55980098165178L117.33978365384614,107.57224422531006L119.64146634615385,106.3797101715336L121.94314903846153,105.664189739278L124.24483173076923,105.23487747992837L126.54651442307691,104.9772901243199L127.19098557692308,104.82273771095531L128.8481971153846,101.51182444475155L131.14987980769232,99.5252764850315L133.4515625,98.33334770920024L135.75324519230767,97.61819044370179L138.05492788461538,97.18909608440285L140.21850961538462,96.93163946882349L140.35661057692306,93.55898368129395L142.65829326923077,91.53539020877633L144.95997596153845,90.32123412526575L147.26165865384615,89.59274047515943L149.56334134615383,89.15564428509566L151.8650240384615,88.8933865710574L153.24603365384615,88.73603194263443L154.16670673076925,85.42343734739885L156.46838942307693,83.4358805902575L158.7700721153846,82.24334653597269L161.0717548076923,81.52782610340176L163.37343750000002,81.09851384385925L165.6751201923077,80.84092648813373L166.2735576923077,80.68637407469842L167.97680288461538,77.37546080845543L170.27848557692306,75.38891284870961L172.58016826923077,74.19698407286212L174.88185096153848,73.48182680735364L177.18353365384615,73.05273244804853L179.30108173076923,72.79527583246548L179.48521634615383,69.42262004493382L181.78689903846154,67.39902657241484L184.08858173076925,66.18487048890346L186.39026442307693,65.45637683879661L188.6919471153846,65.01928064873252L190.99362980769232,64.75702293469405L192.32860576923076,64.59966830627097L193.2953125,61.28707371103531L195.5969951923077,59.29951695389392L197.89867788461538,58.10698289960908L200.2003605769231,57.391462467038174L202.50204326923077,56.96215020749562L204.80372596153845,56.70456285177011L205.3561298076923,56.55001043833479L207.10540865384615,53.23909717209179L209.40709134615386,51.25254921234598L211.70877403846154,50.06062043649848L214.01045673076922,49.345463170989994L216.3121394230769,48.91636881168489L218.38365384615383,48.658912196101845L218.61382211538464,45.28625640857021L220.91550480769232,43.26266293605122L223.2171875,42.048506852539816L225.51887019230767,41.32001320243298L227.8205528846154,40.882917012368885L230.1222355769231,40.62065929833041L231.41117788461537,40.46330466990736L232.42391826923077,37.150710074671665L234.72560096153845,35.16315331753029L237.02728365384618,33.970619263245446L239.32896634615386,33.25509883067454L241.63064903846154,32.82578657113198L243.93233173076922,32.568199215406445L244.43870192307693,32.413646801971154L246.2340144230769,29.102733535728134L248.53569711538464,27.116185575982307L250.83737980769232,25.92425680013481L253.1390625,25.20909953462634L255.44074519230767,24.780005175321257L257.4662259615385,24.52254855973821L257.7424278846154,21.14989277220654L260.04411057692306,19.126299299687584L262.34579326923074,17.912143216176183L264.6474759615384,17.18364956606935L266.94915865384615,16.746553376005252L269.25084134615383,16.484295661966776L270.49375000000003,16.326941033543687L271.5525240384615,13.014346438308026L273.8542067307692,11.026789681166635L276.1558894230769,9.834255626881808L278.4575721153846,9.118735194310904L280.7592548076923,8.689422934768347L283.06093749999997,8.431835579042847L283.52127403846157,8.27728316560752L283.5673076923077,33.93000626300087" style="fill: none;" fill="none"></path></g></g></g></g><g opacity="0.2"><g><g><g><path stroke="rgb(255, 112, 67)" stroke-width="2px" d="M25.27247596153846,160.9090909090909L27.574158653846155,160.9090909090909L29.875841346153848,160.9090909090909L32.17752403846154,160.9090909090909L34.479206730769235,160.9090909090909L35.99831730769231,160.9090909090909L36.78088942307692,152.86363636363637L39.082572115384615,152.86363636363637L41.38425480769231,152.86363636363637L43.685937499999994,152.86363636363637L45.98762019230769,152.86363636363637L48.28930288461538,152.86363636363637L49.02584134615384,152.86363636363637L50.590985576923075,144.8181818181818L52.89266826923077,144.8181818181818L55.19435096153846,144.8181818181818L57.496033653846155,144.8181818181818L59.79771634615384,144.8181818181818L62.05336538461538,144.8181818181818L62.099399038461534,136.77272727272728L64.40108173076923,136.77272727272728L66.70276442307693,136.77272727272728L69.00444711538461,136.77272727272728L71.3061298076923,136.77272727272728L73.6078125,136.77272727272728L75.08088942307693,136.77272727272728L75.9094951923077,128.72727272727272L78.21117788461538,128.72727272727272L80.51286057692309,128.72727272727272L82.81454326923077,128.72727272727272L85.11622596153848,128.72727272727272L87.41790865384615,128.72727272727272L88.10841346153846,128.72727272727272L89.71959134615385,120.68181818181819L92.02127403846154,120.68181818181819L94.32295673076922,120.68181818181819L96.62463942307693,120.68181818181819L98.92632211538461,120.68181818181819L101.13593750000001,120.68181818181819L101.22800480769232,112.63636363636364L103.5296875,112.63636363636364L105.83137019230769,112.63636363636364L108.13305288461538,112.63636363636364L110.43473557692307,112.63636363636364L112.73641826923077,112.63636363636364L114.16346153846155,112.63636363636364L115.03810096153846,104.59090909090908L117.33978365384614,104.59090909090908L119.64146634615385,104.59090909090908L121.94314903846153,104.59090909090908L124.24483173076923,104.59090909090908L126.54651442307691,104.59090909090908L127.19098557692308,104.59090909090908L128.8481971153846,96.54545454545453L131.14987980769232,96.54545454545453L133.4515625,96.54545454545453L135.75324519230767,96.54545454545453L138.05492788461538,96.54545454545453L140.21850961538462,96.54545454545453L140.35661057692306,88.5L142.65829326923077,88.5L144.95997596153845,88.5L147.26165865384615,88.5L149.56334134615383,88.5L151.8650240384615,88.5L153.24603365384615,88.5L154.16670673076925,80.45454545454547L156.46838942307693,80.45454545454547L158.7700721153846,80.45454545454547L161.0717548076923,80.45454545454547L163.37343750000002,80.45454545454547L165.6751201923077,80.45454545454547L166.2735576923077,80.45454545454547L167.97680288461538,72.4090909090909L170.27848557692306,72.4090909090909L172.58016826923077,72.4090909090909L174.88185096153848,72.4090909090909L177.18353365384615,72.4090909090909L179.30108173076923,72.4090909090909L179.48521634615383,64.36363636363636L181.78689903846154,64.36363636363636L184.08858173076925,64.36363636363636L186.39026442307693,64.36363636363636L188.6919471153846,64.36363636363636L190.99362980769232,64.36363636363636L192.32860576923076,64.36363636363636L193.2953125,56.31818181818183L195.5969951923077,56.31818181818183L197.89867788461538,56.31818181818183L200.2003605769231,56.31818181818183L202.50204326923077,56.31818181818183L204.80372596153845,56.31818181818183L205.3561298076923,56.31818181818183L207.10540865384615,48.272727272727266L209.40709134615386,48.272727272727266L211.70877403846154,48.272727272727266L214.01045673076922,48.272727272727266L216.3121394230769,48.272727272727266L218.38365384615383,48.272727272727266L218.61382211538464,40.227272727272734L220.91550480769232,40.227272727272734L223.2171875,40.227272727272734L225.51887019230767,40.227272727272734L227.8205528846154,40.227272727272734L230.1222355769231,40.227272727272734L231.41117788461537,40.227272727272734L232.42391826923077,32.18181818181817L234.72560096153845,32.18181818181817L237.02728365384618,32.18181818181817L239.32896634615386,32.18181818181817L241.63064903846154,32.18181818181817L243.93233173076922,32.18181818181817L244.43870192307693,32.18181818181817L246.2340144230769,24.136363636363633L248.53569711538464,24.136363636363633L250.83737980769232,24.136363636363633L253.1390625,24.136363636363633L255.44074519230767,24.136363636363633L257.4662259615385,24.136363636363633L257.7424278846154,16.090909090909097L260.04411057692306,16.090909090909097L262.34579326923074,16.090909090909097L264.6474759615384,16.090909090909097L266.94915865384615,16.090909090909097L269.25084134615383,16.090909090909097L270.49375000000003,16.090909090909097L271.5525240384615,8.045454545454538L273.8542067307692,8.045454545454538L276.1558894230769,8.045454545454538L278.4575721153846,8.045454545454538L280.7592548076923,8.045454545454538L283.06093749999997,8.045454545454538L283.52127403846157,8.045454545454538L283.5673076923077,72.4090909090909" style="fill: none;" fill="none"></path></g></g></g></g></g><g><g><span fill="rgb(0, 0, 0)" stroke="none" stroke-width="1px">Alt + Scroll to Zoom</span></g></g></g><g transform="translate(30, 177)" clip-path="url(#clip_1)"><clipPath id="clip_1"><rect width="299" height="22"></rect></clipPath><g><g><line x1="0" y1="0" x2="0" y2="5" style="visibility: inherit;" fill="rgb(0, 0, 0)" stroke="rgb(204, 204, 204)" stroke-width="1px"></line><line x1="23.016826923076923" y1="0" x2="23.016826923076923" y2="5" style="visibility: inherit;" fill="rgb(0, 0, 0)" stroke="rgb(204, 204, 204)" stroke-width="1px"></line><line x1="46.03365384615385" y1="0" x2="46.03365384615385" y2="5" style="visibility: inherit;" fill="rgb(0, 0, 0)" stroke="rgb(204, 204, 204)" stroke-width="1px"></line><line x1="69.05048076923077" y1="0" x2="69.05048076923077" y2="5" style="visibility: inherit;" fill="rgb(0, 0, 0)" stroke="rgb(204, 204, 204)" stroke-width="1px"></line><line x1="92.0673076923077" y1="0" x2="92.0673076923077" y2="5" style="visibility: inherit;" fill="rgb(0, 0, 0)" stroke="rgb(204, 204, 204)" stroke-width="1px"></line><line x1="115.08413461538463" y1="0" x2="115.08413461538463" y2="5" style="visibility: inherit;" fill="rgb(0, 0, 0)" stroke="rgb(204, 204, 204)" stroke-width="1px"></line><line x1="138.10096153846155" y1="0" x2="138.10096153846155" y2="5" style="visibility: inherit;" fill="rgb(0, 0, 0)" stroke="rgb(204, 204, 204)" stroke-width="1px"></line><line x1="161.11778846153845" y1="0" x2="161.11778846153845" y2="5" style="visibility: inherit;" fill="rgb(0, 0, 0)" stroke="rgb(204, 204, 204)" stroke-width="1px"></line><line x1="184.1346153846154" y1="0" x2="184.1346153846154" y2="5" style="visibility: inherit;" fill="rgb(0, 0, 0)" stroke="rgb(204, 204, 204)" stroke-width="1px"></line><line x1="207.1514423076923" y1="0" x2="207.1514423076923" y2="5" style="visibility: inherit;" fill="rgb(0, 0, 0)" stroke="rgb(204, 204, 204)" stroke-width="1px"></line><line x1="230.16826923076925" y1="0" x2="230.16826923076925" y2="5" style="visibility: inherit;" fill="rgb(0, 0, 0)" stroke="rgb(204, 204, 204)" stroke-width="1px"></line><line x1="253.18509615384616" y1="0" x2="253.18509615384616" y2="5" style="visibility: inherit;" fill="rgb(0, 0, 0)" stroke="rgb(204, 204, 204)" stroke-width="1px"></line><line x1="276.2019230769231" y1="0" x2="276.2019230769231" y2="5" style="visibility: inherit;" fill="rgb(0, 0, 0)" stroke="rgb(204, 204, 204)" stroke-width="1px"></line><line x1="299.21875" y1="0" x2="299.21875" y2="5" style="visibility: inherit;" fill="rgb(0, 0, 0)" stroke="rgb(204, 204, 204)" stroke-width="1px"></line></g><g transform="translate(0, 8)"><text x="0" y="0" dx="0em" dy="0.95em" style="text-anchor: middle; visibility: hidden; font-family: Roboto, sans-serif; font-size: 12px; font-weight: 200;" fill="rgb(33, 33, 33)" stroke="none" stroke-width="1px">-500</text><text x="23.016826923076923" y="0" dx="0em" dy="0.95em" style="text-anchor: middle; visibility: inherit; font-family: Roboto, sans-serif; font-size: 12px; font-weight: 200;" fill="rgb(33, 33, 33)" stroke="none" stroke-width="1px">0</text><text x="46.03365384615385" y="0" dx="0em" dy="0.95em" style="text-anchor: middle; visibility: inherit; font-family: Roboto, sans-serif; font-size: 12px; font-weight: 200;" fill="rgb(33, 33, 33)" stroke="none" stroke-width="1px">500</text><text x="69.05048076923077" y="0" dx="0em" dy="0.95em" style="text-anchor: middle; visibility: inherit; font-family: Roboto, sans-serif; font-size: 12px; font-weight: 200;" fill="rgb(33, 33, 33)" stroke="none" stroke-width="1px">1k</text><text x="92.0673076923077" y="0" dx="0em" dy="0.95em" style="text-anchor: middle; visibility: inherit; font-family: Roboto, sans-serif; font-size: 12px; font-weight: 200;" fill="rgb(33, 33, 33)" stroke="none" stroke-width="1px">1.5k</text><text x="115.08413461538463" y="0" dx="0em" dy="0.95em" style="text-anchor: middle; visibility: inherit; font-family: Roboto, sans-serif; font-size: 12px; font-weight: 200;" fill="rgb(33, 33, 33)" stroke="none" stroke-width="1px">2k</text><text x="138.10096153846155" y="0" dx="0em" dy="0.95em" style="text-anchor: middle; visibility: inherit; font-family: Roboto, sans-serif; font-size: 12px; font-weight: 200;" fill="rgb(33, 33, 33)" stroke="none" stroke-width="1px">2.5k</text><text x="161.11778846153845" y="0" dx="0em" dy="0.95em" style="text-anchor: middle; visibility: inherit; font-family: Roboto, sans-serif; font-size: 12px; font-weight: 200;" fill="rgb(33, 33, 33)" stroke="none" stroke-width="1px">3k</text><text x="184.1346153846154" y="0" dx="0em" dy="0.95em" style="text-anchor: middle; visibility: inherit; font-family: Roboto, sans-serif; font-size: 12px; font-weight: 200;" fill="rgb(33, 33, 33)" stroke="none" stroke-width="1px">3.5k</text><text x="207.1514423076923" y="0" dx="0em" dy="0.95em" style="text-anchor: middle; visibility: inherit; font-family: Roboto, sans-serif; font-size: 12px; font-weight: 200;" fill="rgb(33, 33, 33)" stroke="none" stroke-width="1px">4k</text><text x="230.16826923076925" y="0" dx="0em" dy="0.95em" style="text-anchor: middle; visibility: inherit; font-family: Roboto, sans-serif; font-size: 12px; font-weight: 200;" fill="rgb(33, 33, 33)" stroke="none" stroke-width="1px">4.5k</text><text x="253.18509615384616" y="0" dx="0em" dy="0.95em" style="text-anchor: middle; visibility: inherit; font-family: Roboto, sans-serif; font-size: 12px; font-weight: 200;" fill="rgb(33, 33, 33)" stroke="none" stroke-width="1px">5k</text><text x="276.2019230769231" y="0" dx="0em" dy="0.95em" style="text-anchor: middle; visibility: inherit; font-family: Roboto, sans-serif; font-size: 12px; font-weight: 200;" fill="rgb(33, 33, 33)" stroke="none" stroke-width="1px">5.5k</text><text x="299.21875" y="0" dx="0em" dy="0.95em" style="text-anchor: middle; visibility: hidden; font-family: Roboto, sans-serif; font-size: 12px; font-weight: 200;" fill="rgb(33, 33, 33)" stroke="none" stroke-width="1px">6k</text></g><line x1="0" y1="0" x2="299.21875" y2="0" fill="rgb(0, 0, 0)" stroke="rgb(204, 204, 204)" stroke-width="1px"></line></g></g></g></g></svg>