<svg viewBox="0 0 330 200" xmlns="http://www.w3.org/2000/svg"><g><g><g><g><g><line x1="61.953125" y1="177" x2="56.953125" y2="177" style="visibility: inherit;" fill="rgb(0, 0, 0)" stroke="rgb(204, 204, 204)" stroke-width="1px"></line><line x1="61.953125" y1="157.33333333333331" x2="56.953125" y2="157.33333333333331" style="visibility: inherit;" fill="rgb(0, 0, 0)" stroke="rgb(204, 204, 204)" stroke-width="1px"></line><line x1="61.953125" y1="137.66666666666666" x2="56.953125" y2="137.66666666666666" style="visibility: inherit;" fill="rgb(0, 0, 0)" stroke="rgb(204, 204, 204)" stroke-width="1px"></line><line x1="61.953125" y1="118" x2="56.953125" y2="118" style="visibility: inherit;" fill="rgb(0, 0, 0)" stroke="rgb(204, 204, 204)" stroke-width="1px"></line><line x1="61.953125" y1="98.33333333333334" x2="56.953125" y2="98.33333333333334" style="visibility: inherit;" fill="rgb(0, 0, 0)" stroke="rgb(204, 204, 204)" stroke-width="1px"></line><line x1="61.953125" y1="78.66666666666669" x2="56.953125" y2="78.66666666666669" style="visibility: inherit;" fill="rgb(0, 0, 0)" stroke="rgb(204, 204, 204)" stroke-width="1px"></line><line x1="61.953125" y1="58.999999999999986" x2="56.953125" y2="58.999999999999986" style="visibility: inherit;" fill="rgb(0, 0, 0)" stroke="rgb(204, 204, 204)" stroke-width="1px"></line><line x1="61.953125" y1="39.33333333333333" x2="56.953125" y2="39.33333333333333" style="visibility: inherit;" fill="rgb(0, 0, 0)" stroke="rgb(204, 204, 204)" stroke-width="1px"></line><line x1="61.953125" y1="19.666666666666657" x2="56.953125" y2="19.666666666666657" style="visibility: inherit;" fill="rgb(0, 0, 0)" stroke="rgb(204, 204, 204)" stroke-width="1px"></line><line x1="61.953125" y1="0" x2="56.953125" y2="0" style="visibility: inherit;" fill="rgb(0, 0, 0)" stroke="rgb(204, 204, 204)" stroke-width="1px"></line></g><g transform="translate(51.953125, 0)"><text x="0" y="177" dx="0em" dy="0.3em" style="text-anchor: end; visibility: hidden; font-family: Roboto, sans-serif; font-size: 12px; font-weight: 200;" fill="rgb(33, 33, 33)" stroke="none" stroke-width="1px">4e-3</text><text x="0" y="157.33333333333331" dx="0em" dy="0.3em" style="text-anchor: end; visibility: inherit; font-family: Roboto, sans-serif; font-size: 12px; font-weight: 200;" fill="rgb(33, 33, 33)" stroke="none" stroke-width="1px">5e-3</text><text x="0" y="137.66666666666666" dx="0em" dy="0.3em" style="text-anchor: end; visibility: hidden; font-family: Roboto, sans-serif; font-size: 12px; font-weight: 200;" fill="rgb(33, 33, 33)" stroke="none" stroke-width="1px">6e-3</text><text x="0" y="118" dx="0em" dy="0.3em" style="text-anchor: end; visibility: inherit; font-family: Roboto, sans-serif; font-size: 12px; font-weight: 200;" fill="rgb(33, 33, 33)" stroke="none" stroke-width="1px">7e-3</text><text x="0" y="98.33333333333334" dx="0em" dy="0.3em" style="text-anchor: end; visibility: hidden; font-family: Roboto, sans-serif; font-size: 12px; font-weight: 200;" fill="rgb(33, 33, 33)" stroke="none" stroke-width="1px">8e-3</text><text x="0" y="78.66666666666669" dx="0em" dy="0.3em" style="text-anchor: end; visibility: inherit; font-family: Roboto, sans-serif; font-size: 12px; font-weight: 200;" fill="rgb(33, 33, 33)" stroke="none" stroke-width="1px">9e-3</text><text x="0" y="58.999999999999986" dx="0em" dy="0.3em" style="text-anchor: end; visibility: hidden; font-family: Roboto, sans-serif; font-size: 12px; font-weight: 200;" fill="rgb(33, 33, 33)" stroke="none" stroke-width="1px">0.01</text><text x="0" y="39.33333333333333" dx="0em" dy="0.3em" style="text-anchor: end; visibility: inherit; font-family: Roboto, sans-serif; font-size: 12px; font-weight: 200;" fill="rgb(33, 33, 33)" stroke="none" stroke-width="1px">0.011</text><text x="0" y="19.666666666666657" dx="0em" dy="0.3em" style="text-anchor: end; visibility: hidden; font-family: Roboto, sans-serif; font-size: 12px; font-weight: 200;" fill="rgb(33, 33, 33)" stroke="none" stroke-width="1px">0.012</text><text x="0" y="0" dx="0em" dy="0.3em" style="text-anchor: end; visibility: hidden; font-family: Roboto, sans-serif; font-size: 12px; font-weight: 200;" fill="rgb(33, 33, 33)" stroke="none" stroke-width="1px">0.013</text></g><line x1="61.953125" y1="0" x2="61.953125" y2="177" fill="rgb(0, 0, 0)" stroke="rgb(204, 204, 204)" stroke-width="1px"></line></g></g><g transform="translate(61, 0)" clip-path="url(#clip_0)"><clipPath id="clip_0"><rect width="268" height="176"></rect></clipPath><g><g><g><line x1="0" y1="0" x2="0" y2="177" fill="rgb(0, 0, 0)" stroke="rgb(66, 66, 66)" stroke-width="1px" opacity="0.25"></line><line x1="20.618990384615387" y1="0" x2="20.618990384615387" y2="177" fill="rgb(0, 0, 0)" stroke="rgb(66, 66, 66)" stroke-width="1px" opacity="0.25"></line><line x1="41.237980769230774" y1="0" x2="41.237980769230774" y2="177" fill="rgb(0, 0, 0)" stroke="rgb(66, 66, 66)" stroke-width="1px" opacity="0.25"></line><line x1="61.85697115384616" y1="0" x2="61.85697115384616" y2="177" fill="rgb(0, 0, 0)" stroke="rgb(66, 66, 66)" stroke-width="1px" opacity="0.25"></line><line x1="82.47596153846155" y1="0" x2="82.47596153846155" y2="177" fill="rgb(0, 0, 0)" stroke="rgb(66, 66, 66)" stroke-width="1px" opacity="0.25"></line><line x1="103.09495192307693" y1="0" x2="103.09495192307693" y2="177" fill="rgb(0, 0, 0)" stroke="rgb(66, 66, 66)" stroke-width="1px" opacity="0.25"></line><line x1="123.71394230769232" y1="0" x2="123.71394230769232" y2="177" fill="rgb(0, 0, 0)" stroke="rgb(66, 66, 66)" stroke-width="1px" opacity="0.25"></line><line x1="144.33293269230768" y1="0" x2="144.33293269230768" y2="177" fill="rgb(0, 0, 0)" stroke="rgb(66, 66, 66)" stroke-width="1px" opacity="0.25"></line><line x1="164.9519230769231" y1="0" x2="164.9519230769231" y2="177" fill="rgb(0, 0, 0)" stroke="rgb(66, 66, 66)" stroke-width="1px" opacity="0.25"></line><line x1="185.57091346153845" y1="0" x2="185.57091346153845" y2="177" fill="rgb(0, 0, 0)" stroke="rgb(66, 66, 66)" stroke-width="1px" opacity="0.25"></line><line x1="206.18990384615387" y1="0" x2="206.18990384615387" y2="177" fill="rgb(0, 0, 0)" stroke="rgb(66, 66, 66)" stroke-width="1px" opacity="0.25"></line><line x1="226.80889423076923" y1="0" x2="226.80889423076923" y2="177" fill="rgb(0, 0, 0)" stroke="rgb(66, 66, 66)" stroke-width="1px" opacity="0.25"></line><line x1="247.42788461538464" y1="0" x2="247.42788461538464" y2="177" fill="rgb(0, 0, 0)" stroke="rgb(66, 66, 66)" stroke-width="1px" opacity="0.25"></line><line x1="268.046875" y1="0" x2="268.046875" y2="177" fill="rgb(0, 0, 0)" stroke="rgb(66, 66, 66)" stroke-width="1px" opacity="0.25"></line></g><g><line x1="0" y1="177" x2="268.046875" y2="177" fill="rgb(0, 0, 0)" stroke="rgb(66, 66, 66)" stroke-width="1px" opacity="0.25"></line><line x1="0" y1="157.33333333333331" x2="268.046875" y2="157.33333333333331" fill="rgb(0, 0, 0)" stroke="rgb(66, 66, 66)" stroke-width="1px" opacity="0.25"></line><line x1="0" y1="137.66666666666666" x2="268.046875" y2="137.66666666666666" fill="rgb(0, 0, 0)" stroke="rgb(66, 66, 66)" stroke-width="1px" opacity="0.25"></line><line x1="0" y1="118" x2="268.046875" y2="118" fill="rgb(0, 0, 0)" stroke="rgb(66, 66, 66)" stroke-width="1px" opacity="0.25"></line><line x1="0" y1="98.33333333333334" x2="268.046875" y2="98.33333333333334" fill="rgb(0, 0, 0)" stroke="rgb(66, 66, 66)" stroke-width="1px" opacity="0.25"></line><line x1="0" y1="78.66666666666669" x2="268.046875" y2="78.66666666666669" fill="rgb(0, 0, 0)" stroke="rgb(66, 66, 66)" stroke-width="1px" opacity="0.25"></line><line x1="0" y1="58.999999999999986" x2="268.046875" y2="58.999999999999986" fill="rgb(0, 0, 0)" stroke="rgb(66, 66, 66)" stroke-width="1px" opacity="0.25"></line><line x1="0" y1="39.33333333333333" x2="268.046875" y2="39.33333333333333" fill="rgb(0, 0, 0)" stroke="rgb(66, 66, 66)" stroke-width="1px" opacity="0.25"></line><line x1="0" y1="19.666666666666657" x2="268.046875" y2="19.666666666666657" fill="rgb(0, 0, 0)" stroke="rgb(66, 66, 66)" stroke-width="1px" opacity="0.25"></line><line x1="0" y1="0" x2="268.046875" y2="0" fill="rgb(0, 0, 0)" stroke="rgb(66, 66, 66)" stroke-width="1px" opacity="0.25"></line></g></g></g><g><g><line x1="0" y1="255.66666666666666" x2="268.046875" y2="255.66666666666666" fill="rgb(0, 0, 0)" stroke="rgb(153, 153, 153)" stroke-width="1.5px"></line></g></g><g><g><line x1="20.618990384615387" y1="0" x2="20.618990384615387" y2="177" fill="rgb(0, 0, 0)" stroke="rgb(153, 153, 153)" stroke-width="1.5px"></line></g></g><g><g><g><g><g><path stroke="rgb(255, 112, 67)" stroke-width="2px" d="M32.94914663461539,-14.771362936449629L35.01104567307692,19.419326815006734L37.07294471153846,19.66013083477761L39.134843749999995,38.93033594254284L41.196742788461535,37.69722016861001L43.258641826923075,47.216290927328096L45.320540865384615,45.80381315758292L47.382439903846155,78.81481655054809L49.44433894230769,95.35248366426896L51.50623798076923,109.60033284908982L53.56813701923077,27.561226946275625L55.63003605769231,64.73753893156764L57.69193509615384,93.14439566075988L59.75383413461538,76.46600869587874L61.81573317307692,104.80451288598532L63.87763221153846,126.16628408488867L65.93953125,101.56509496124049L68.00143028846155,105.48286538585869L70.06332932692308,131.65397717539628L72.12522836538463,138.43823584237023L74.18712740384615,144.00411501006147L76.2490264423077,113.42765800711446L78.31092548076923,131.6855383542871L80.37282451923078,60.94581059740189L82.43472355769231,107.78163853448247L84.49662259615384,126.29297046281899L86.55852163461539,144.41909761595105L88.62042067307692,114.1727629058581L90.68231971153847,121.78792728564333L92.74421874999999,120.06975096986153L94.80611778846153,104.8327750344571L96.86801682692307,131.27172262566944L98.92991586538461,145.7471221006835L100.99181490384615,162.72105625329695L103.0537139423077,151.1909655276285L105.11561298076923,159.37665980330073L107.17751201923078,163.10260554445856L109.23941105769231,155.38785001686824L111.30131009615384,155.42006607832042L113.36320913461537,153.08331935022738L115.42510817307692,155.33202587974864L117.48700721153845,162.12669500234992L119.54890625,159.54571452695262L121.61080528846153,163.73307436486638L123.67270432692308,154.28240257462505L125.73460336538461,155.81455089029805L127.79650240384616,148.3381652412225L129.8584014423077,146.1879548958349L131.92030048076924,155.78056847343302L133.98219951923076,163.6468297270355L136.0440985576923,169.95686677609626L138.10599759615386,155.71669260768613L140.16789663461537,159.0847536267356L142.22979567307692,161.72129758843894L144.29169471153844,160.7180985613611L146.35359375000002,158.55714229915216L148.41549278846153,162.09316735718855L150.47739182692308,69.654901114627L152.5392908653846,113.62613434445348L154.60118990384618,138.15620980670954L156.6630889423077,128.84417663322427L158.7249879807692,139.80218644473877L160.78688701923076,151.59083524515586L162.8487860576923,152.60144332152817L164.91068509615386,150.1924763054781L166.97258413461537,164.21993804163532L169.03448317307692,170.99641048075833L171.09638221153847,167.23887008922543L173.15828125000002,137.17138846316286L175.22018028846153,88.34656499682872L177.28207932692305,123.48659042333968L179.34397836538463,134.93411290038867L181.40587740384615,121.79771839115566L183.4677764423077,135.34606470137965L185.5296754807692,7.849523143788959L187.5915745192308,77.58957049483307L189.6534735576923,110.3852826812918L191.71537259615386,131.25959168726533L193.77727163461537,150.84113817525505L195.83917067307695,152.32431575425028L197.90106971153847,130.01395437578893L199.96296875,132.03756875471592L202.02486778846153,147.8033572570065L204.08676682692308,159.84340972864106L206.14866586538463,158.08815986313508L208.21056490384615,141.29868119546623L210.2724639423077,38.93859852704715L212.33436298076924,89.04070793799548L214.3962620192308,121.63428294039959L216.4581610576923,99.47898496216848L218.52006009615383,122.55762653316845L220.58195913461537,87.05428063531191L222.64385817307692,124.2821950281231L224.70575721153847,132.51848742601683L226.76765625,142.3897607027734L228.82955528846153,151.2553727502174L230.89145432692308,153.93939207342547L232.95335336538463,135.73275932975977L235.01525240384615,131.14740881010908L237.07715144230767,146.33954791685952L239.13905048076924,155.47314372834174L241.20094951923076,158.19171936468248L243.2628485576923,153.1083984081306L245.32474759615383,95.13934619750724L247.3866466346154,122.08684528237274L249.44854567307692,147.74751650635812L251.51044471153847,120.25579529510584L253.57234375,142.89987570895738" style="fill: none;" fill="none"></path></g></g></g></g><g opacity="0.2"><g><g><g><path stroke="rgb(255, 112, 67)" stroke-width="2px" d="M24.70155048076923,-401.745800236861L26.763449519230768,40.637141406536095L28.82534855769231,62.409218403200306L30.88724759615385,-43.32372608035806L32.94914663461539,16.658772716919565L35.01104567307692,68.31256021062532L37.07294471153846,20.01122540732224L39.134843749999995,67.35014543185632L41.196742788461535,35.86618695656458L43.258641826923075,61.40855979422727L45.320540865384615,43.6927831446131L47.382439903846155,128.22353498637676L49.44433894230769,120.12658532336354L51.50623798076923,130.95535881444812L53.56813701923077,-95.43957157433034L55.63003605769231,120.48627514019608L57.69193509615384,135.74746825670204L59.75383413461538,51.45096903294325L61.81573317307692,147.30967891961336L63.87763221153846,158.2077693529427L65.93953125,64.66412078837553L68.00143028846155,111.35944367324313L70.06332932692308,170.91033483793336L72.12522836538463,148.61457562322417L74.18712740384615,152.35291002566615L76.2490264423077,67.56305073946713L78.31092548076923,159.07233084489903L80.37282451923078,-45.16371587663892L82.43472355769231,178.03535455465317L84.49662259615384,154.0599622167647L86.55852163461539,171.60828473915655L88.62042067307692,68.80326445152362L90.68231971153847,133.2106733098626L92.74421874999999,117.49248657003045L94.80611778846153,81.97731152425209L96.86801682692307,170.93014360343417L98.92991586538461,167.46022117882967L100.99181490384615,188.18195738767582L103.0537139423077,133.89582947765786L105.11561298076923,171.65520120039582L107.17751201923078,168.69152415171266L109.23941105769231,143.8157167310516L111.30131009615384,155.46839017048478L113.36320913461537,149.57819925869504L115.42510817307692,158.70508567367992L117.48700721153845,172.31869868561625L119.54890625,155.6742438140015L121.61080528846153,170.01411412159604L123.67270432692308,140.10639488945404L125.73460336538461,158.11277336378893L127.79650240384616,137.12358676766357L129.8584014423077,142.96263937776288L131.92030048076924,170.16948883980513L133.98219951923076,175.44622160742682L136.0440985576923,179.42192234968147L138.10599759615386,134.35643135507902L140.16789663461537,164.13684515530866L142.22979567307692,165.67611353099346L144.29169471153844,159.2133000207444L146.35359375000002,155.3157079058389L148.41549278846153,167.39720494424304L150.47739182692308,-69.00249824921293L152.5392908653846,179.58298418919247L154.60118990384618,174.9513230000933L156.6630889423077,114.87612687299648L158.7249879807692,156.23920116201043L160.78688701923076,169.27380844578147L162.8487860576923,154.11735543608665L164.91068509615386,146.57902578140298L166.97258413461537,185.26113064587116L169.03448317307692,181.16111913944286L171.09638221153847,161.6025595019261L173.15828125000002,92.07016602406897L175.22018028846153,15.109329797327506L177.28207932692305,176.19662856310606L179.34397836538463,152.10539661596218L181.40587740384615,102.09312662730613L183.4677764423077,155.66858416671553L185.5296754807692,-183.39528919259712L187.5915745192308,182.1996415213992L189.6534735576923,159.57885096097985L191.71537259615386,162.57105519622564L193.77727163461537,180.2134579072396L195.83917067307695,154.54908212274313L197.90106971153847,96.54841230809687L199.96296875,135.07299032310644L202.02486778846153,171.45204001044235L204.08676682692308,177.90348843609294L206.14866586538463,155.45528506487608L208.21056490384615,116.11446319396298L210.2724639423077,-114.6015254755815L212.33436298076924,164.19387205441794L214.3962620192308,170.52464544400573L216.4581610576923,66.24603799482186L218.52006009615383,157.17558888966838L220.58195913461537,33.799261788527154L222.64385817307692,180.12406661733985L224.70575721153847,144.87292602285743L226.76765625,157.19667061790824L228.82955528846153,164.5537908213834L230.89145432692308,157.96542105823755L232.95335336538463,108.4228102142612L235.01525240384615,124.26938303063314L237.07715144230767,169.12775657698512L239.13905048076924,169.17353744556505L241.20094951923076,162.2695828191936L243.2628485576923,145.48341697330278L245.32474759615383,8.18576788157224L247.3866466346154,162.50809390967092L249.44854567307692,186.23852334233624L251.51044471153847,79.01821347822745L253.57234375,176.8659963297347" style="fill: none;" fill="none"></path></g></g></g></g></g></g><g transform="translate(61, 177)" clip-path="url(#clip_1)"><clipPath id="clip_1"><rect width="268" height="22"></rect></clipPath><g><g><line x1="0" y1="0" x2="0" y2="5" style="visibility: inherit;" fill="rgb(0, 0, 0)" stroke="rgb(204, 204, 204)" stroke-width="1px"></line><line x1="20.618990384615387" y1="0" x2="20.618990384615387" y2="5" style="visibility: inherit;" fill="rgb(0, 0, 0)" stroke="rgb(204, 204, 204)" stroke-width="1px"></line><line x1="41.237980769230774" y1="0" x2="41.237980769230774" y2="5" style="visibility: inherit;" fill="rgb(0, 0, 0)" stroke="rgb(204, 204, 204)" stroke-width="1px"></line><line x1="61.85697115384616" y1="0" x2="61.85697115384616" y2="5" style="visibility: inherit;" fill="rgb(0, 0, 0)" stroke="rgb(204, 204, 204)" stroke-width="1px"></line><line x1="82.47596153846155" y1="0" x2="82.47596153846155" y2="5" style="visibility: inherit;" fill="rgb(0, 0, 0)" stroke="rgb(204, 204, 204)" stroke-width="1px"></line><line x1="103.09495192307693" y1="0" x2="103.09495192307693" y2="5" style="visibility: inherit;" fill="rgb(0, 0, 0)" stroke="rgb(204, 204, 204)" stroke-width="1px"></line><line x1="123.71394230769232" y1="0" x2="123.71394230769232" y2="5" style="visibility: inherit;" fill="rgb(0, 0, 0)" stroke="rgb(204, 204, 204)" stroke-width="1px"></line><line x1="144.33293269230768" y1="0" x2="144.33293269230768" y2="5" style="visibility: inherit;" fill="rgb(0, 0, 0)" stroke="rgb(204, 204, 204)" stroke-width="1px"></line><line x1="164.9519230769231" y1="0" x2="164.9519230769231" y2="5" style="visibility: inherit;" fill="rgb(0, 0, 0)" stroke="rgb(204, 204, 204)" stroke-width="1px"></line><line x1="185.57091346153845" y1="0" x2="185.57091346153845" y2="5" style="visibility: inherit;" fill="rgb(0, 0, 0)" stroke="rgb(204, 204, 204)" stroke-width="1px"></line><line x1="206.18990384615387" y1="0" x2="206.18990384615387" y2="5" style="visibility: inherit;" fill="rgb(0, 0, 0)" stroke="rgb(204, 204, 204)" stroke-width="1px"></line><line x1="226.80889423076923" y1="0" x2="226.80889423076923" y2="5" style="visibility: inherit;" fill="rgb(0, 0, 0)" stroke="rgb(204, 204, 204)" stroke-width="1px"></line><line x1="247.42788461538464" y1="0" x2="247.42788461538464" y2="5" style="visibility: inherit;" fill="rgb(0, 0, 0)" stroke="rgb(204, 204, 204)" stroke-width="1px"></line><line x1="268.046875" y1="0" x2="268.046875" y2="5" style="visibility: inherit;" fill="rgb(0, 0, 0)" stroke="rgb(204, 204, 204)" stroke-width="1px"></line></g><g transform="translate(0, 8)"><text x="0" y="0" dx="0em" dy="0.95em" style="text-anchor: middle; visibility: hidden; font-family: Roboto, sans-serif; font-size: 12px; font-weight: 200;" fill="rgb(33, 33, 33)" stroke="none" stroke-width="1px">-500</text><text x="20.618990384615387" y="0" dx="0em" dy="0.95em" style="text-anchor: middle; visibility: inherit; font-family: Roboto, sans-serif; font-size: 12px; font-weight: 200;" fill="rgb(33, 33, 33)" stroke="none" stroke-width="1px">0</text><text x="41.237980769230774" y="0" dx="0em" dy="0.95em" style="text-anchor: middle; visibility: hidden; font-family: Roboto, sans-serif; font-size: 12px; font-weight: 200;" fill="rgb(33, 33, 33)" stroke="none" stroke-width="1px">500</text><text x="61.85697115384616" y="0" dx="0em" dy="0.95em" style="text-anchor: middle; visibility: inherit; font-family: Roboto, sans-serif; font-size: 12px; font-weight: 200;" fill="rgb(33, 33, 33)" stroke="none" stroke-width="1px">1k</text><text x="82.47596153846155" y="0" dx="0em" dy="0.95em" style="text-anchor: middle; visibility: hidden; font-family: Roboto, sans-serif; font-size: 12px; font-weight: 200;" fill="rgb(33, 33, 33)" stroke="none" stroke-width="1px">1.5k</text><text x="103.09495192307693" y="0" dx="0em" dy="0.95em" style="text-anchor: middle; visibility: inherit; font-family: Roboto, sans-serif; font-size: 12px; font-weight: 200;" fill="rgb(33, 33, 33)" stroke="none" stroke-width="1px">2k</text><text x="123.71394230769232" y="0" dx="0em" dy="0.95em" style="text-anchor: middle; visibility: hidden; font-family: Roboto, sans-serif; font-size: 12px; font-weight: 200;" fill="rgb(33, 33, 33)" stroke="none" stroke-width="1px">2.5k</text><text x="144.33293269230768" y="0" dx="0em" dy="0.95em" style="text-anchor: middle; visibility: inherit; font-family: Roboto, sans-serif; font-size: 12px; font-weight: 200;" fill="rgb(33, 33, 33)" stroke="none" stroke-width="1px">3k</text><text x="164.9519230769231" y="0" dx="0em" dy="0.95em" style="text-anchor: middle; visibility: hidden; font-family: Roboto, sans-serif; font-size: 12px; font-weight: 200;" fill="rgb(33, 33, 33)" stroke="none" stroke-width="1px">3.5k</text><text x="185.57091346153845" y="0" dx="0em" dy="0.95em" style="text-anchor: middle; visibility: inherit; font-family: Roboto, sans-serif; font-size: 12px; font-weight: 200;" fill="rgb(33, 33, 33)" stroke="none" stroke-width="1px">4k</text><text x="206.18990384615387" y="0" dx="0em" dy="0.95em" style="text-anchor: middle; visibility: hidden; font-family: Roboto, sans-serif; font-size: 12px; font-weight: 200;" fill="rgb(33, 33, 33)" stroke="none" stroke-width="1px">4.5k</text><text x="226.80889423076923" y="0" dx="0em" dy="0.95em" style="text-anchor: middle; visibility: inherit; font-family: Roboto, sans-serif; font-size: 12px; font-weight: 200;" fill="rgb(33, 33, 33)" stroke="none" stroke-width="1px">5k</text><text x="247.42788461538464" y="0" dx="0em" dy="0.95em" style="text-anchor: middle; visibility: hidden; font-family: Roboto, sans-serif; font-size: 12px; font-weight: 200;" fill="rgb(33, 33, 33)" stroke="none" stroke-width="1px">5.5k</text><text x="268.046875" y="0" dx="0em" dy="0.95em" style="text-anchor: middle; visibility: hidden; font-family: Roboto, sans-serif; font-size: 12px; font-weight: 200;" fill="rgb(33, 33, 33)" stroke="none" stroke-width="1px">6k</text></g><line x1="0" y1="0" x2="268.046875" y2="0" fill="rgb(0, 0, 0)" stroke="rgb(204, 204, 204)" stroke-width="1px"></line></g></g></g></g></svg>